General                          : ChattChitto RG - Movies [R2L]
==========
Complete name                    : The Tourist 2010 720p BRRip H264 [ChattChitto RG]
Format                           : MPEG-4
Format profile                   : Base Media
Codec ID                         : isom
File size                        : 1.92 GiB
Duration                         : 1h 43mn
Overall bit rate                 : 2 657 Kbps
Encoded date                     : UTC 2011-02-19 13:31:44

Video
==========
ID                               : 1
Format                           : AVC
Format/Info                      : Advanced Video Codec
Format profile                   : High@L4.0
Format settings, CABAC           : Yes
Format settings, ReFrames        : 4 frames
Codec ID                         : avc1
Codec ID/Info                    : Advanced Video Coding
Duration                         : 1h 43mn
Bit rate mode                    : Variable
Bit rate                         : 2 300 Kbps
Maximum bit rate                 : 18.7 Mbps
Width                            : 1 280 pixels
Height                           : 528 pixels
Display aspect ratio             : 2.40:1
Frame rate mode                  : Constant
Frame rate                       : 23.976 fps
Resolution                       : 24 bits
Colorimetry                      : 4:2:0
Scan type                        : Progressive
Bits/(Pixel*Frame)               : 0.142
Stream size                      : 1.66 GiB (87%)
Writing library                  : x264 core 84 r1400M 20fa784
Encoded date                     : UTC 2011-02-19 11:34:37

Audio
==========
ID                               : 2
Format                           : AAC
Format/Info                      : Advanced Audio Codec
Format version                   : Version 4
Format profile                   : LC
Format settings, SBR             : No
Codec ID                         : 40
Duration                         : 1h 43mn
Bit rate mode                    : Variable
Bit rate                         : 352.8 Kbps
Maximum bit rate                 : 448 Kbps
Channel(s)                       : 6 channels
Channel positions                : Front: L C R, Rear: L R, LFE
Sampling rate                    : 48.0 KHz
Resolution                       : 16 bits
Stream size                      : 262 MiB (13%)
Encoded date                     : UTC 2011-02-19 13:32:41

Subtitles                        : English | French | Portuguese | Romanian


----------------------------------------------------
IMDB Link: http://www.imdb.com/title/tt1243957/
----------------------------------------------------



Screen Shots:
==============    
http://chattchitto.net/chattchittorg/movies/brrip/2011/tourist/3.png 
http://chattchitto.net/chattchittorg/movies/brrip/2011/tourist/4.png 
http://chattchitto.net/chattchittorg/movies/brrip/2011/tourist/5.png 
http://chattchitto.net/chattchittorg/movies/brrip/2011/tourist/6.png 
http://chattchitto.net/chattchittorg/movies/brrip/2011/tourist/7.png



ScreenShots Comparison:
=========================  
http://screenshotcomparison.com/comparison/29871



Plot:
======
Revolves around Frank, a tourist from the US visiting Italy to mend a broken heart. Elise is an extraordinary woman who deliberately crosses his path.



Release Info:
==============
original name .... : The Tourist 2010 720p BRRip H264 [ChattChitto RG]
ripper.............: MySiLU
encoder............: Recalled2Life (R2L)
video codec........: H264/.MP4
video bitrate......: 2300 Kbps
audio codec........: AAC-LC
aspect ratio.......: 2.40:1
resolution.........: 1280 x 528
genre..............: Action | Drama | Romance
runtime............: 1h 43mn
language...........: English
rating.............: PG-13
subtitles..........: English | French | Portuguese | Romanian
sample.............: Yes [14.4 MB]
2ch Audio..........: 2ch Audio for XBox Viewers  
Compatibility .....: XBox | PS3 | WD Live



Source:
========
The.Tourist.2010.BluRay.720p.x264.DTS-MySiLU  THANKS!



Notes:
=======
ChattChitto RG Encourages Burning this Film with ConvertXtoDVD and Playing with VLC media player.
XBox 360 | PS3 | WD Live - Compatible 
Enhanced for your viewing pleasure ;)